<mxfile host="app.diagrams.net" modified="2024-07-04T10:12:02.602Z" agent="Mozilla/5.0 (Windows NT 10.0; Win64; x64) AppleWebKit/537.36 (KHTML, like Gecko) Chrome/126.0.0.0 Safari/537.36" etag="fh9HTD2Zx1nG-wPcggbD" version="24.6.4" type="device" pages="2">
  <diagram name="overview" id="86zHy-saFX_LYRAMhjMW">
    <mxGraphModel dx="794" dy="412" grid="1" gridSize="10" guides="1" tooltips="1" connect="1" arrows="1" fold="1" page="1" pageScale="1" pageWidth="850" pageHeight="1100" math="0" shadow="0">
      <root>
        <mxCell id="0" />
        <mxCell id="1" parent="0" />
        <mxCell id="Xu52ilaQlp3Qao65w6GY-1" value="ADMIN" style="shape=umlActor;verticalLabelPosition=bottom;verticalAlign=top;html=1;outlineConnect=0;" parent="1" vertex="1">
          <mxGeometry x="640" y="530" width="30" height="60" as="geometry" />
        </mxCell>
        <mxCell id="Xu52ilaQlp3Qao65w6GY-4" value="" style="html=1;shadow=0;dashed=0;align=center;verticalAlign=middle;shape=mxgraph.arrows2.arrow;dy=0.6;dx=40;direction=north;notch=0;" parent="1" vertex="1">
          <mxGeometry x="640" y="420" width="30" height="70" as="geometry" />
        </mxCell>
        <mxCell id="Xu52ilaQlp3Qao65w6GY-11" value="" style="html=1;shadow=0;dashed=0;align=center;verticalAlign=middle;shape=mxgraph.arrows2.arrow;dy=0.6;dx=40;flipH=1;notch=0;" parent="1" vertex="1">
          <mxGeometry x="480" y="368" width="80" height="30" as="geometry" />
        </mxCell>
        <mxCell id="Xu52ilaQlp3Qao65w6GY-14" value="" style="html=1;shadow=0;dashed=0;align=center;verticalAlign=middle;shape=mxgraph.arrows2.arrow;dy=0.6;dx=40;direction=south;notch=0;" parent="1" vertex="1">
          <mxGeometry x="375" y="440" width="30" height="70" as="geometry" />
        </mxCell>
        <mxCell id="Xu52ilaQlp3Qao65w6GY-15" value="TREAT&lt;div&gt;PATIENT&lt;/div&gt;" style="text;html=1;align=center;verticalAlign=middle;resizable=0;points=[];autosize=1;strokeColor=none;fillColor=none;" parent="1" vertex="1">
          <mxGeometry x="425" y="455" width="70" height="40" as="geometry" />
        </mxCell>
        <mxCell id="Xu52ilaQlp3Qao65w6GY-16" value="" style="html=1;shadow=0;dashed=0;align=center;verticalAlign=middle;shape=mxgraph.arrows2.arrow;dy=0.6;dx=40;flipH=1;notch=0;" parent="1" vertex="1">
          <mxGeometry x="495" y="560" width="80" height="30" as="geometry" />
        </mxCell>
        <mxCell id="Xu52ilaQlp3Qao65w6GY-17" value="VIEW" style="text;html=1;align=center;verticalAlign=middle;resizable=0;points=[];autosize=1;strokeColor=none;fillColor=none;" parent="1" vertex="1">
          <mxGeometry x="510" y="590" width="50" height="30" as="geometry" />
        </mxCell>
        <mxCell id="Xu52ilaQlp3Qao65w6GY-18" value="ADD" style="text;html=1;align=center;verticalAlign=middle;resizable=0;points=[];autosize=1;strokeColor=none;fillColor=none;" parent="1" vertex="1">
          <mxGeometry x="495" y="330" width="50" height="30" as="geometry" />
        </mxCell>
        <mxCell id="Xu52ilaQlp3Qao65w6GY-20" value="DOCTOR" style="rounded=1;whiteSpace=wrap;html=1;" parent="1" vertex="1">
          <mxGeometry x="335" y="368" width="120" height="30" as="geometry" />
        </mxCell>
        <mxCell id="Xu52ilaQlp3Qao65w6GY-21" value="REGISTER" style="rounded=1;whiteSpace=wrap;html=1;" parent="1" vertex="1">
          <mxGeometry x="595" y="370" width="120" height="30" as="geometry" />
        </mxCell>
        <mxCell id="Xu52ilaQlp3Qao65w6GY-23" value="APPOINTMENT" style="rounded=1;whiteSpace=wrap;html=1;" parent="1" vertex="1">
          <mxGeometry x="330" y="550" width="120" height="30" as="geometry" />
        </mxCell>
        <mxCell id="Xu52ilaQlp3Qao65w6GY-24" value="" style="html=1;shadow=0;dashed=0;align=center;verticalAlign=middle;shape=mxgraph.arrows2.arrow;dy=0.6;dx=40;notch=0;" parent="1" vertex="1">
          <mxGeometry x="210" y="550" width="80" height="35" as="geometry" />
        </mxCell>
        <mxCell id="Xu52ilaQlp3Qao65w6GY-26" value="TAKE" style="text;html=1;align=center;verticalAlign=middle;resizable=0;points=[];autosize=1;strokeColor=none;fillColor=none;" parent="1" vertex="1">
          <mxGeometry x="220" y="590" width="50" height="30" as="geometry" />
        </mxCell>
        <mxCell id="Xu52ilaQlp3Qao65w6GY-27" value="PATIENT" style="rounded=1;whiteSpace=wrap;html=1;" parent="1" vertex="1">
          <mxGeometry x="50" y="550" width="120" height="30" as="geometry" />
        </mxCell>
        <mxCell id="Xu52ilaQlp3Qao65w6GY-29" value="LOGIN" style="text;html=1;align=center;verticalAlign=middle;resizable=0;points=[];autosize=1;strokeColor=none;fillColor=none;" parent="1" vertex="1">
          <mxGeometry x="490" y="410" width="60" height="30" as="geometry" />
        </mxCell>
        <mxCell id="Xu52ilaQlp3Qao65w6GY-30" value="&lt;font style=&quot;font-size: 40px;&quot;&gt;over view&lt;/font&gt;" style="text;html=1;align=center;verticalAlign=middle;resizable=0;points=[];autosize=1;strokeColor=none;fillColor=none;" parent="1" vertex="1">
          <mxGeometry x="340" y="230" width="190" height="60" as="geometry" />
        </mxCell>
      </root>
    </mxGraphModel>
  </diagram>
  <diagram id="bNxpU8VNRdL2QMiAgTqN" name="usecase">
    <mxGraphModel dx="794" dy="412" grid="1" gridSize="10" guides="1" tooltips="1" connect="1" arrows="1" fold="1" page="1" pageScale="1" pageWidth="850" pageHeight="1100" math="0" shadow="0">
      <root>
        <mxCell id="0" />
        <mxCell id="1" parent="0" />
        <mxCell id="t5bsCUsjrKo0iWHC3L9Z-1" value="ADMIN" style="shape=umlActor;verticalLabelPosition=bottom;verticalAlign=top;html=1;outlineConnect=0;" vertex="1" parent="1">
          <mxGeometry x="110" y="150" width="30" height="50" as="geometry" />
        </mxCell>
        <mxCell id="t5bsCUsjrKo0iWHC3L9Z-3" value="" style="ellipse;whiteSpace=wrap;html=1;" vertex="1" parent="1">
          <mxGeometry x="240" y="60" width="110" height="30" as="geometry" />
        </mxCell>
        <mxCell id="t5bsCUsjrKo0iWHC3L9Z-8" value="" style="ellipse;whiteSpace=wrap;html=1;" vertex="1" parent="1">
          <mxGeometry x="240" y="110" width="110" height="30" as="geometry" />
        </mxCell>
        <mxCell id="t5bsCUsjrKo0iWHC3L9Z-9" value="" style="ellipse;whiteSpace=wrap;html=1;" vertex="1" parent="1">
          <mxGeometry x="240" y="160" width="110" height="30" as="geometry" />
        </mxCell>
        <mxCell id="t5bsCUsjrKo0iWHC3L9Z-10" value="" style="ellipse;whiteSpace=wrap;html=1;" vertex="1" parent="1">
          <mxGeometry x="240" y="220" width="110" height="30" as="geometry" />
        </mxCell>
        <mxCell id="t5bsCUsjrKo0iWHC3L9Z-11" value="" style="ellipse;whiteSpace=wrap;html=1;" vertex="1" parent="1">
          <mxGeometry x="240" y="280" width="110" height="30" as="geometry" />
        </mxCell>
        <mxCell id="t5bsCUsjrKo0iWHC3L9Z-22" value="" style="edgeStyle=none;orthogonalLoop=1;jettySize=auto;html=1;rounded=0;" edge="1" parent="1">
          <mxGeometry width="80" relative="1" as="geometry">
            <mxPoint x="150" y="174.5" as="sourcePoint" />
            <mxPoint x="230" y="174.5" as="targetPoint" />
            <Array as="points" />
          </mxGeometry>
        </mxCell>
        <mxCell id="t5bsCUsjrKo0iWHC3L9Z-23" value="" style="endArrow=classic;html=1;rounded=0;" edge="1" parent="1">
          <mxGeometry width="50" height="50" relative="1" as="geometry">
            <mxPoint x="150" y="170" as="sourcePoint" />
            <mxPoint x="230" y="80" as="targetPoint" />
          </mxGeometry>
        </mxCell>
        <mxCell id="t5bsCUsjrKo0iWHC3L9Z-24" value="" style="endArrow=classic;html=1;rounded=0;" edge="1" parent="1">
          <mxGeometry width="50" height="50" relative="1" as="geometry">
            <mxPoint x="160" y="170" as="sourcePoint" />
            <mxPoint x="230" y="130" as="targetPoint" />
          </mxGeometry>
        </mxCell>
        <mxCell id="t5bsCUsjrKo0iWHC3L9Z-25" value="" style="endArrow=classic;html=1;rounded=0;" edge="1" parent="1">
          <mxGeometry width="50" height="50" relative="1" as="geometry">
            <mxPoint x="150" y="180" as="sourcePoint" />
            <mxPoint x="230" y="290" as="targetPoint" />
          </mxGeometry>
        </mxCell>
        <mxCell id="t5bsCUsjrKo0iWHC3L9Z-26" value="" style="endArrow=classic;html=1;rounded=0;" edge="1" parent="1">
          <mxGeometry width="50" height="50" relative="1" as="geometry">
            <mxPoint x="160" y="180" as="sourcePoint" />
            <mxPoint x="230" y="230" as="targetPoint" />
          </mxGeometry>
        </mxCell>
      </root>
    </mxGraphModel>
  </diagram>
</mxfile>
